<?xml version="1.0" standalone="no"?>
<!DOCTYPE svg PUBLIC "-//W3C//DTD SVG 20010904//EN"
 "http://www.w3.org/TR/2001/REC-SVG-20010904/DTD/svg10.dtd">
<svg version="1.0" xmlns="http://www.w3.org/2000/svg"
 width="256.000000pt" height="159.000000pt" viewBox="0 0 256.000000 159.000000"
 preserveAspectRatio="xMidYMid meet">

<g transform="translate(0.000000,159.000000) scale(0.100000,-0.100000)"
fill="#000000" stroke="none">
<path d="M174 592 c-12 -48 -25 -95 -29 -104 -5 -14 -2 -18 13 -18 13 0 22 9
26 25 5 21 12 25 40 25 28 0 35 -4 38 -22 2 -15 11 -24 27 -26 17 -3 22 0 19
10 -3 7 -16 55 -29 106 -23 91 -24 92 -54 92 -29 0 -30 -2 -51 -88z m68 -7 c2
-25 -1 -31 -21 -33 -22 -4 -23 -2 -16 35 4 21 9 42 12 47 8 12 21 -14 25 -49z"/>
<path d="M355 575 c0 -100 1 -105 21 -105 18 0 21 6 20 43 -1 39 1 42 27 45
35 4 35 30 0 34 -22 2 -28 8 -28 28 0 22 5 25 38 28 58 5 40 26 -24 30 l-54 3
0 -106z"/>
<path d="M510 575 c0 -98 1 -105 20 -105 17 0 20 7 20 40 0 33 3 40 20 40 14
0 22 -11 31 -40 9 -31 17 -40 34 -40 22 0 22 0 7 44 -15 41 -15 46 1 64 21 23
22 51 1 80 -13 19 -24 22 -75 22 l-59 0 0 -105z m103 53 c14 -22 -7 -48 -39
-48 -20 0 -24 5 -24 28 0 16 3 32 7 36 12 11 45 2 56 -16z"/>
<path d="M715 575 c0 -98 1 -105 20 -105 19 0 20 7 20 105 0 98 -1 105 -20
105 -19 0 -20 -7 -20 -105z"/>
<path d="M912 657 c-32 -34 -32 -134 1 -165 28 -27 92 -30 101 -6 9 24 8 25
-18 18 -44 -11 -66 11 -66 66 0 58 20 85 57 75 20 -5 24 -2 21 12 -5 29 -68
30 -96 0z"/>
<path d="M1065 575 c0 -99 1 -105 21 -105 18 0 20 6 20 48 -1 46 0 47 29 47
29 0 30 -2 33 -47 3 -40 6 -48 23 -48 18 0 19 8 19 105 0 98 -1 105 -20 105
-17 0 -20 -7 -20 -41 0 -39 -1 -40 -32 -37 -31 3 -33 5 -32 41 1 31 -2 37 -20
37 -20 0 -21 -5 -21 -105z"/>
<path d="M1283 592 c-12 -48 -25 -95 -28 -104 -5 -14 -2 -18 13 -18 14 0 22 8
24 23 2 18 10 23 41 25 34 3 37 1 37 -22 0 -21 5 -26 26 -26 16 0 24 4 21 13
-3 6 -15 54 -28 105 -23 91 -23 92 -53 92 -30 0 -31 -2 -53 -88z m69 -7 c2
-25 -1 -31 -21 -33 -22 -4 -23 -2 -16 35 4 21 9 42 12 47 8 12 20 -13 25 -49z"/>
<path d="M1462 575 c-3 -99 -2 -105 17 -105 18 0 20 8 23 68 l3 67 26 -55 27
-55 22 53 c13 28 27 52 32 52 6 0 9 -26 6 -65 -3 -57 -2 -65 14 -65 16 0 18
11 18 105 0 98 -1 105 -20 105 -14 0 -28 -16 -46 -52 l-27 -53 -23 53 c-19 41
-29 52 -46 52 -22 0 -23 -3 -26 -105z"/>
<path d="M1727 581 c-15 -55 -27 -102 -27 -105 0 -3 9 -6 20 -6 15 0 20 7 20
26 0 23 3 25 38 22 30 -2 38 -7 40 -25 3 -17 10 -23 28 -23 14 0 22 4 19 10
-3 6 -17 52 -30 103 -22 88 -24 92 -52 95 -29 3 -30 2 -56 -97z m68 7 c7 -34
5 -38 -14 -38 -22 0 -27 22 -15 68 8 30 21 17 29 -30z"/>
<path d="M1993 592 c-12 -48 -25 -95 -28 -104 -5 -14 -2 -18 13 -18 14 0 22 8
24 23 2 17 10 23 40 25 32 3 37 0 40 -20 2 -15 11 -24 27 -26 17 -3 22 0 19
10 -3 7 -16 55 -29 106 -23 91 -24 92 -54 92 -29 0 -30 -2 -52 -88z m69 -7 c2
-25 -1 -31 -21 -33 -22 -4 -23 -2 -16 35 4 21 9 42 12 47 8 12 21 -14 25 -49z"/>
<path d="M2170 575 c0 -104 0 -105 24 -105 20 0 23 4 22 38 -1 35 1 37 34 40
46 5 70 28 70 67 0 47 -26 65 -93 65 l-57 0 0 -105z m94 69 c26 -10 20 -53 -8
-60 -32 -8 -46 2 -46 30 0 35 17 44 54 30z"/>
<path d="M2369 676 c-2 -2 -3 -50 -1 -105 3 -94 5 -101 24 -101 16 0 19 5 14
24 -10 39 2 56 39 56 36 0 75 37 75 70 0 33 -43 60 -96 60 -28 0 -53 -2 -55
-4z m99 -55 c4 -25 -11 -41 -39 -41 -20 0 -32 26 -23 52 9 29 58 21 62 -11z"/>
<path d="M782 325 c0 -36 2 -43 7 -25 8 28 39 39 53 18 8 -10 9 -10 5 2 -2 8
-15 16 -30 18 -14 2 -28 11 -30 20 -3 9 -5 -5 -5 -33z"/>
<path d="M1250 357 c0 -7 9 -18 20 -25 20 -12 21 -12 4 13 -18 28 -24 31 -24
12z"/>
<path d="M1311 332 c-1 -24 -5 -31 -13 -26 -8 5 -7 0 2 -11 14 -18 15 -18 18
3 2 12 1 32 -1 45 -3 15 -5 12 -6 -11z"/>
<path d="M1670 311 c0 -31 4 -37 22 -38 27 -2 48 14 47 36 0 10 -3 8 -10 -7
-11 -29 -43 -26 -47 5 -2 16 3 22 20 25 22 3 21 4 -4 9 -27 6 -28 4 -28 -30z"/>
<path d="M887 333 c-3 -5 8 -8 23 -8 15 0 26 3 23 8 -2 4 -13 7 -23 7 -10 0
-21 -3 -23 -7z"/>
<path d="M970 331 c0 -5 11 -6 25 -3 22 4 25 1 26 -24 1 -29 1 -29 8 -4 5 17
14 25 29 24 11 0 19 2 17 6 -6 10 -105 10 -105 1z"/>
<path d="M1117 333 c-3 -5 8 -8 23 -8 15 0 26 3 23 8 -2 4 -13 7 -23 7 -10 0
-21 -3 -23 -7z"/>
<path d="M1531 307 c2 -30 2 -31 6 -4 3 19 10 27 24 27 10 0 19 -5 19 -11 0
-8 5 -8 15 1 8 7 22 10 30 6 9 -3 14 -2 11 2 -3 5 -28 9 -56 10 l-50 1 1 -32z"/>
<path d="M1780 336 c0 -2 9 -6 20 -9 11 -3 18 -1 14 4 -5 9 -34 13 -34 5z"/>
<path d="M1851 308 c1 -29 2 -30 8 -9 3 13 15 28 26 32 17 6 16 8 -7 8 -25 1
-28 -2 -27 -31z"/>
<path d="M1501 312 c0 -13 -10 -26 -23 -32 -13 -5 -16 -9 -8 -9 27 -1 42 15
37 40 -4 24 -4 24 -6 1z"/>
<path d="M936 294 c-4 -9 -4 -19 -1 -22 2 -3 7 3 11 12 4 9 4 19 1 22 -2 3 -7
-3 -11 -12z"/>
<path d="M1941 294 c0 -11 3 -14 6 -6 3 7 2 16 -1 19 -3 4 -6 -2 -5 -13z"/>
<path d="M1161 284 c0 -11 3 -14 6 -6 3 7 2 16 -1 19 -3 4 -6 -2 -5 -13z"/>
<path d="M1383 293 c-15 -5 -17 -23 -4 -23 5 0 11 7 15 15 3 8 4 15 3 14 -1 0
-8 -3 -14 -6z"/>
<path d="M1800 283 c-14 -7 -18 -13 -10 -13 17 0 47 17 40 23 -3 2 -16 -2 -30
-10z"/>
<path d="M1118 278 c5 -5 16 -8 23 -6 8 3 3 7 -10 11 -17 4 -21 3 -13 -5z"/>
<path d="M728 273 c7 -3 16 -2 19 1 4 3 -2 6 -13 5 -11 0 -14 -3 -6 -6z"/>
<path d="M1359 243 c-13 -16 -12 -17 4 -4 16 13 21 21 13 21 -2 0 -10 -8 -17
-17z"/>
</g>
</svg>
